<?xml version="1.0" encoding="utf-8"?>
<!-- Generator: Adobe Illustrator 22.1.0, SVG Export Plug-In . SVG Version: 6.00 Build 0)  -->
<svg version="1.1" id="Layer_1" xmlns="http://www.w3.org/2000/svg" xmlns:xlink="http://www.w3.org/1999/xlink" x="0px" y="0px"
	 viewBox="0 0 512 512" style="enable-background:new 0 0 512 512;" xml:space="preserve">
<style type="text/css">
	.st0{fill:#81BDA4;}
	.st1{fill:#E56A77;}
</style>
<g id="group-29svg">
	<path id="path-1" class="st0" d="M353,142.2H167.3l-37.4,277c-2.6,19.3,12.4,36.8,31.8,36.8h142l0,0"/>
	<path id="path-2" class="st1" d="M384.1,456H241l-70.5-313.8h183.2l61.6,274.3C419.9,436.5,404.6,456,384.1,456z"/>
	<path id="path-3" d="M359.5,443.7H216.4c-4.3,0-8.1-3-9-7.2l-70.5-313.8c-0.6-2.7,0-5.6,1.8-7.8c1.8-2.2,4.4-3.5,7.2-3.5h183.2
		c4.3,0,8.1,3,9,7.2l61.6,274.3c2.8,12.4-0.2,25.3-8.2,35.3C383.7,438,372,443.7,359.5,443.7z M223.8,425.2h135.7
		c6.9,0,13.3-3.1,17.7-8.6c4.5-5.6,6.1-12.8,4.6-19.7l-60-267.1H157.5L223.8,425.2z"/>
	<path id="path-4" d="M279.2,443.7h-142c-11.8,0-23.1-5.2-31-14.1c-8-9.1-11.6-21.2-10-33.1l37.4-277c0.6-4.6,4.5-8,9.1-8h185.7
		c5.1,0,9.2,4.1,9.2,9.2c0,5.1-4.1,9.2-9.2,9.2H150.8l-36.3,269c-0.9,6.7,1.2,13.4,5.6,18.5c4.4,5.1,10.5,7.8,17.1,7.8h142
		c5.1,0,9.2,4.1,9.2,9.2S284.3,443.7,279.2,443.7z"/>
	<path id="path-5" d="M276.1,126.8c-5.1,0-9.2-4.1-9.2-9.2V99c0-13.1-10.8-24.5-23-24.5h-16c-12.2,0-22.5,11.2-22.5,24.5v18.5
		c0,5.1-4.1,9.2-9.2,9.2c-5.1,0-9.2-4.1-9.2-9.2V99c0-23.3,18.7-43,40.9-43h16c22.5,0,41.5,19.7,41.5,43v18.5
		C285.3,122.6,281.2,126.8,276.1,126.8z"/>
</g>
</svg>
